<svg width="28" height="26" viewBox="0 0 28 26" fill="none" xmlns="http://www.w3.org/2000/svg">
<path d="M13.1156 0.676337C13.4908 -0.0348092 14.5092 -0.0348074 14.8844 0.676339L18.3553 7.25478C18.5 7.52903 18.7637 7.72063 19.0692 7.7735L26.3982 9.0416C27.1905 9.17869 27.5053 10.1473 26.9449 10.7239L21.7609 16.0577C21.5448 16.2801 21.4441 16.5901 21.4882 16.897L22.547 24.2592C22.6614 25.0551 21.8375 25.6537 21.1159 25.2989L14.4412 22.017C14.163 21.8801 13.837 21.8801 13.5588 22.017L6.88408 25.2989C6.16253 25.6537 5.33856 25.0551 5.45302 24.2592L6.51177 16.897C6.55591 16.5901 6.45517 16.2801 6.23906 16.0577L1.05513 10.7239C0.494739 10.1473 0.809469 9.17869 1.60175 9.0416L8.93077 7.7735C9.23631 7.72063 9.50003 7.52903 9.64472 7.25478L13.1156 0.676337Z" fill="#FFC91B"/>
</svg>
