<svg width="466" height="464" viewBox="0 0 466 464" fill="none" xmlns="http://www.w3.org/2000/svg">
<g filter="url(#filter0_i_113_43)">
<path d="M436 218C436 338.398 338.398 436 218 436C97.6019 436 0 338.398 0 218C0 97.6019 97.6019 0 218 0C338.398 0 436 97.6019 436 218Z" fill="#7284BD"/>
<mask id="mask0_113_43" style="mask-type:alpha" maskUnits="userSpaceOnUse" x="0" y="0" width="436" height="436">
<path d="M436 218C436 338.398 338.398 436 218 436C97.6019 436 0 338.398 0 218C0 97.6019 97.6019 0 218 0C338.398 0 436 97.6019 436 218Z" fill="#7284BD"/>
</mask>
<g mask="url(#mask0_113_43)">
<g filter="url(#filter1_f_113_43)">
<path d="M45.3019 93.5706C37.5745 94.143 26.5245 96.083 23.3818 104.726C17.8027 101.006 19.5585 99.5319 20.5735 92.0884C21.8383 82.8134 30.1357 74.3888 30.4024 64.7858C30.5733 58.6337 29.644 53.932 35.3949 51.0565C39.72 48.894 42.8709 44.3479 48.1101 44.3479C58.0147 44.3479 65.5594 44.2854 73.3066 39.3554C80.2642 34.9278 86.1049 26.0017 86.5678 17.6693C86.7385 14.5981 95.3323 7.55336 97.8009 6.12417C107.828 0.319282 120.255 0.819657 131.422 0.819657C137.023 0.819657 144.137 1.57696 144.137 8.62041C144.137 16.7287 145.376 28.1364 140.471 35.221C133.362 45.4897 131.801 62.0052 121.749 69.5443C116.925 73.1623 105.321 71.0264 99.5171 71.0264C91.7482 71.0264 85.2591 70.931 79.5472 76.643C75.1621 81.028 75.0269 87.1395 70.5763 91.9324C66.3648 96.4678 51.1454 93.1377 45.3019 93.5706Z" fill="#263A7A"/>
</g>
<g filter="url(#filter2_f_113_43)">
<path d="M200.927 14.861C207.273 9.63479 197.494 -10.0601 197.494 -17.4341C202.946 -17.4341 203.479 -24.6203 208.104 -27.2631C217.562 -32.6678 227.555 -31.203 235.094 -23.3627C239.874 -18.3912 243.831 -12.6149 243.831 -5.34296C243.831 1.64177 250.842 13.5884 244.923 20.1655C242.833 22.4873 239.755 27.5492 238.136 30.4625C234.973 36.1565 232.598 38.4856 232.598 45.1279C232.598 52.897 235.83 69.5549 232.286 76.6429C229.585 82.0454 215.203 87.7719 209.976 89.5142C198.874 93.2149 191.878 100.901 191.878 112.058C191.878 123.658 193.634 131.556 189.772 142.715C185.57 154.855 175.265 166.981 162.703 171.812C153.262 175.443 147.631 174.139 140.627 168.692C137.177 166.008 130.555 173.97 127.912 175.556C118.628 181.127 112.709 186.527 105.134 194.278C100.404 199.117 95.2983 208.385 89.064 211.128C81.4505 214.478 67.3218 214.574 59.1872 212.766C55.3076 211.904 53.6033 207.228 49.7483 207.228C45.2736 207.228 39.189 206.064 34.9268 207.54C26.4101 210.488 22.2848 219.879 17.0631 226.261C12.308 232.073 6.02484 238.353 2.63172 245.139C-2.3042 255.011 -7.90102 259.181 -19.9905 259.181C-21.4736 259.181 -28.7288 260.115 -29.6634 258.868C-32.1646 255.533 -30.9551 239.68 -29.6634 234.998C-25.9893 221.68 -20.1465 207.805 -20.1465 193.888C-20.1465 191.463 -23.9498 186.707 -22.6427 185.073C-20.6085 182.531 -17.5798 179.832 -15.9341 177.117C-11.0144 168.999 -0.208462 166.508 8.6383 166.508C18.9798 166.508 29.575 169.316 40.2313 169.316C53.5867 169.316 57.8217 169.095 64.8037 157.459C71.9896 145.482 75.907 132.226 81.2633 119.079C83.3546 113.946 92.1605 102.982 97.0208 99.8892C100.161 97.891 104.905 99.8342 108.254 100.201C114.69 100.907 121.29 100.513 127.756 100.513C134.582 100.513 135.082 97.2381 138.521 91.7764C142.487 85.4773 140.816 81.9664 147.492 77.345C151.435 74.6148 156.336 73.9884 160.363 71.5724C165.334 68.5898 170.816 64.5192 170.816 58.3892C170.816 55.5648 171.829 50.389 168.008 49.9644C166.252 49.7692 160.987 43.9356 160.987 42.2416C160.987 39.2361 160.447 36.2472 162.391 33.8168C165.933 29.389 175.238 27.4982 180.645 27.4982C189.267 27.4982 194.496 20.1566 200.927 14.861Z" fill="#263A7A"/>
</g>
<g filter="url(#filter3_f_113_43)">
<path d="M279.246 42.3197C290.882 27.236 304.042 13.7906 312.634 -3.39266C314.5 -8 310.597 -9.37712 308 -11C307.445 -11.3468 315.536 -12.5 316.5 -12.5C325.58 -12.5 317.27 -9.51466 326 -7.49994C340.163 -4.23164 343.756 4.15963 356.162 11.7408C367.489 18.6631 382.372 23.7285 390.485 34.831C401.406 49.7754 398.468 66.0087 395.4 82.8836C394.49 87.8867 387.535 92.891 384.869 97.081C380.512 103.927 377.719 106.916 378.706 115.803C379.235 120.56 380.658 124.49 379.72 129.532C377.748 140.133 375.865 141.812 368.019 149.658C356.406 161.271 360.374 180.673 360.374 195.995C360.374 205.369 361.39 215.326 360.296 224.623C359.18 234.115 354.395 242.652 350.467 251.068C346.919 258.67 343.945 262.809 337.284 267.605C335.07 269.199 329.393 272.724 328.235 275.328C326.817 278.518 317.827 283.869 313.726 284.455C301.648 286.181 289.278 292.491 277.218 292.88C269.385 293.133 261.5 292.88 253.66 292.88C244.573 292.88 240.425 293.067 232.598 297.092C225.527 300.729 222.644 305.435 217.464 310.822C198.308 330.745 169.543 332.196 143.435 332.196C134.651 332.196 123.842 331.861 117.537 339.216C114.858 342.342 115.135 346.738 112.778 350.059C102.261 364.879 81.8402 370.994 67.1439 380.638C47.646 393.434 31.7683 388.385 16.9851 371.043C10.7395 363.717 6.21858 358.379 2.94376 349.045C-0.721356 338.6 -7.38699 328.409 -4.38895 316.75C-3.00681 311.375 13.7356 313.942 18.2332 313.942C26.9008 313.942 50.0603 312.503 50.0603 299.745C50.0603 288.946 45.5423 267.873 59.8892 266.279C65.8526 265.617 72.1392 266.279 79 266.279C85.857 266.279 89.31 262.629 93.893 257.784L93.9005 257.776C97 254.5 100.086 248 103.5 245.451C109.561 240.927 113.703 240.927 125.182 240.927C131.208 240.927 137.656 241.119 142.421 245.451C149.412 251.807 146.946 261.826 146.946 270.414C146.946 284.599 145.983 302.709 165.511 302.709C173.284 302.709 177.837 300.101 177.837 292.1C177.837 282.653 176.445 279.089 171.362 272.442C169.112 269.5 163.5 266.919 163.5 257.5C163.5 251.566 164.821 247.91 167.228 242.409C169.271 237.739 170.588 233.091 172.22 228.29C174.263 222.282 180.295 218.681 185.013 214.872C192.381 208.925 200.456 205.098 207.635 199.115C214.288 193.571 235.126 194.068 243.831 196.307C250.981 198.145 258.279 204.019 262 206.5C265 208.5 268.019 210.656 270.5 212C274.192 214 280.818 216.723 286.579 219.865C295.926 224.963 299.955 225.709 307.173 219.007C319.074 207.956 318.584 189.809 311.854 176.961C307.146 167.974 298.522 157.693 287.203 162.139C270.125 168.848 254.348 169.185 237.902 162.607C232.288 160.362 236.027 148.132 238.526 144.042C242.236 137.971 256.106 134.593 262.397 132.496C273.746 128.713 304.503 120.342 299.996 104.57C296.722 93.1109 272.164 106.392 264.113 96.1449C257.091 87.2084 260.709 74.5781 265.985 65.722C270.577 58.014 273.885 49.2698 279.246 42.3197Z" fill="#263A7A"/>
</g>
<g filter="url(#filter4_f_113_43)">
<path d="M420.903 114.183C422.719 111.726 428.342 104.258 428.704 101C436.435 101 432.688 109.25 437.909 112.233C443.449 115.399 449.908 124.225 453.354 129.395C459.633 138.812 459.634 160.12 453.354 169.725C450.039 174.795 449.296 179.929 446.1 184.546C443.531 188.256 438.799 195.81 434.632 197.573C431.067 199.082 428.225 203.802 424.491 205.998C421.113 207.986 418.912 211.487 417.393 213.955C415.527 216.987 413.027 219.747 411.074 221.834C409.527 223.487 408.838 225.04 409.046 228.776C409.248 232.411 410.67 234.731 412.946 237.513C417.393 242.948 417.105 245.397 417.393 248C418.5 258 415.819 264.531 412.634 270.9C403.71 288.75 397.701 308.924 383.07 323.555C379.966 326.659 377.104 330.68 375.347 334.633C373.769 338.183 369.061 340.626 367.234 343.915C364.81 348.278 361.61 350.632 357.795 354.446C354.854 357.387 350.718 362.633 347.264 364.665C343.617 366.811 340.67 370.946 337.123 373.402C333.205 376.115 329.469 377.838 325.5 380.345C316.763 385.863 305.977 389.189 298.119 395.868C294.03 399.344 284.359 398.886 279.085 400.393C274.217 401.784 269.42 403.606 264.42 404.995C253.697 407.974 243.905 412.928 233.451 417.633C218.089 424.545 200.629 428.108 185.789 436.588C182.62 438.399 181.521 442.863 177.832 443.453C174.451 443.994 170.663 443.728 167.223 443.609C159.101 443.329 149.456 442.772 142.884 437.992C138.533 434.828 129.954 429.659 131.105 423.327C132.264 416.954 139.963 412.283 143.664 407.414C147.266 402.675 157.733 400.626 163.01 398.989C169.976 396.827 179.877 398.677 187.115 398.677C197.292 398.677 208.688 409.554 219.488 403.201C221.837 401.819 221.765 393.107 219.176 391.968C214.576 389.944 209.659 388.493 209.659 382.607C209.659 368.892 229.55 368.462 240.55 370.906C251.82 373.411 264.901 371.998 276.433 371.998C293.918 371.998 304.025 369.081 317.621 357.957C324.968 351.946 331.274 345.176 338.293 338.767C342.307 335.102 346.881 330.526 349.448 325.662C350.499 323.671 350.712 321.373 352.413 319.733C357.892 314.45 364.121 311.913 368.014 304.834C370.094 301.052 371.589 296.592 374.567 293.367C382.001 285.313 391.694 273.327 394.927 262.554C398.234 251.529 400.621 241.928 400.621 230.18C400.621 223.721 400.894 214.244 404.132 208.416C406.653 203.877 407.216 197.333 409.748 192.269C411.789 188.187 413.113 182.454 411.542 177.915C408.301 168.553 403.429 164.404 403.429 153.733C403.429 145.408 409.326 134.015 414.663 127.679C417.875 123.863 417.827 118.344 420.903 114.183Z" fill="#263A7A"/>
</g>
<g filter="url(#filter5_f_113_43)">
<path d="M92.9643 396.006C84.2582 401.546 77.1499 406.468 67.9999 411.5C61.3857 411.5 62.4399 431.079 66.0001 433.5C74.5048 439.283 91.8911 430.702 95.5 422.5C96.4826 420.267 110.888 409.641 113.246 408.331C117.126 406.175 118.365 403.673 120.891 400.998C122.383 399.418 125.776 393.542 127.6 392.885C131.445 391.501 136.536 391.169 140.627 391.169C153.853 391.169 172.119 386.483 177.837 373.618C183.645 360.549 203.394 356.201 215.436 349.669C225.131 344.411 240.299 344.608 248.043 336.408C249.935 334.405 254 328.5 246.327 326.891C238.654 325.282 233.576 328.684 227.293 330.479C221.126 332.241 217.368 336.379 211.536 339.216C206.091 341.865 201.143 340.747 195.778 342.337C184.369 345.717 173.442 346.765 167.384 358.016C162.826 366.48 158.705 379.936 146.399 379.936C142.58 379.936 139.525 371.422 135.088 369.405C130.244 367.203 128.065 370.813 125.571 373.618C123.015 376.494 117.293 377.441 114.104 379.936C111.802 381.738 110.848 384.411 108.8 386.255C104.834 389.824 97.7433 392.965 92.9643 396.006Z" fill="#263A7A"/>
</g>
<g filter="url(#filter6_f_113_43)">
<path d="M30.4024 137.723C30.4024 128.249 28.2048 124.552 19.1693 120.171C11.5 117.5 5.36082 124.405 5.12797 128.596C4.72525 135.845 8.67146 139.362 14.3329 141.935C19.8517 144.444 30.4024 146.486 30.4024 137.723Z" fill="#263A7A"/>
</g>
</g>
<mask id="mask1_113_43" style="mask-type:alpha" maskUnits="userSpaceOnUse" x="62" y="39" width="372" height="396">
<path d="M396 362C367.283 414.681 297 415 241.5 434.5C159 434.5 62 430.176 62 291C62 151.824 174.824 39 314 39C432.5 57.5 468.5 229 396 362Z" fill="#08060D" fill-opacity="0.26"/>
</mask>
<g mask="url(#mask1_113_43)">
<g filter="url(#filter7_f_113_43)">
<path d="M436.852 227C436.852 306 351.25 435 230.852 435C110.454 435 50 394.898 50 274.5C50 154.102 133.5 67.5001 257 37.5C357.5 13.087 436.852 106.602 436.852 227Z" fill="#D9D9D9"/>
</g>
</g>
</g>
<defs>
<filter id="filter0_i_113_43" x="0" y="0" width="451" height="451" filterUnits="userSpaceOnUse" color-interpolation-filters="sRGB">
<feFlood flood-opacity="0" result="BackgroundImageFix"/>
<feBlend mode="normal" in="SourceGraphic" in2="BackgroundImageFix" result="shape"/>
<feColorMatrix in="SourceAlpha" type="matrix" values="0 0 0 0 0 0 0 0 0 0 0 0 0 0 0 0 0 0 127 0" result="hardAlpha"/>
<feOffset dx="15" dy="15"/>
<feGaussianBlur stdDeviation="10.5"/>
<feComposite in2="hardAlpha" operator="arithmetic" k2="-1" k3="1"/>
<feColorMatrix type="matrix" values="0 0 0 0 0 0 0 0 0 0 0 0 0 0 0 0 0 0 0.43 0"/>
<feBlend mode="normal" in2="shape" result="effect1_innerShadow_113_43"/>
</filter>
<filter id="filter1_f_113_43" x="17.4885" y="-1.19116" width="128.788" height="107.917" filterUnits="userSpaceOnUse" color-interpolation-filters="sRGB">
<feFlood flood-opacity="0" result="BackgroundImageFix"/>
<feBlend mode="normal" in="SourceGraphic" in2="BackgroundImageFix" result="shape"/>
<feGaussianBlur stdDeviation="1" result="effect1_foregroundBlur_113_43"/>
</filter>
<filter id="filter2_f_113_43" x="-33.1202" y="-32.483" width="282.418" height="294" filterUnits="userSpaceOnUse" color-interpolation-filters="sRGB">
<feFlood flood-opacity="0" result="BackgroundImageFix"/>
<feBlend mode="normal" in="SourceGraphic" in2="BackgroundImageFix" result="shape"/>
<feGaussianBlur stdDeviation="1" result="effect1_foregroundBlur_113_43"/>
</filter>
<filter id="filter3_f_113_43" x="-7.14294" y="-14.5" width="407.358" height="404.3" filterUnits="userSpaceOnUse" color-interpolation-filters="sRGB">
<feFlood flood-opacity="0" result="BackgroundImageFix"/>
<feBlend mode="normal" in="SourceGraphic" in2="BackgroundImageFix" result="shape"/>
<feGaussianBlur stdDeviation="1" result="effect1_foregroundBlur_113_43"/>
</filter>
<filter id="filter4_f_113_43" x="129" y="99" width="331.064" height="346.78" filterUnits="userSpaceOnUse" color-interpolation-filters="sRGB">
<feFlood flood-opacity="0" result="BackgroundImageFix"/>
<feBlend mode="normal" in="SourceGraphic" in2="BackgroundImageFix" result="shape"/>
<feGaussianBlur stdDeviation="1" result="effect1_foregroundBlur_113_43"/>
</filter>
<filter id="filter5_f_113_43" x="61.1763" y="324.471" width="191.647" height="112.92" filterUnits="userSpaceOnUse" color-interpolation-filters="sRGB">
<feFlood flood-opacity="0" result="BackgroundImageFix"/>
<feBlend mode="normal" in="SourceGraphic" in2="BackgroundImageFix" result="shape"/>
<feGaussianBlur stdDeviation="1" result="effect1_foregroundBlur_113_43"/>
</filter>
<filter id="filter6_f_113_43" x="3.09973" y="117.573" width="29.3026" height="28.5229" filterUnits="userSpaceOnUse" color-interpolation-filters="sRGB">
<feFlood flood-opacity="0" result="BackgroundImageFix"/>
<feBlend mode="normal" in="SourceGraphic" in2="BackgroundImageFix" result="shape"/>
<feGaussianBlur stdDeviation="1" result="effect1_foregroundBlur_113_43"/>
</filter>
<filter id="filter7_f_113_43" x="21" y="4.60205" width="444.852" height="459.398" filterUnits="userSpaceOnUse" color-interpolation-filters="sRGB">
<feFlood flood-opacity="0" result="BackgroundImageFix"/>
<feBlend mode="normal" in="SourceGraphic" in2="BackgroundImageFix" result="shape"/>
<feGaussianBlur stdDeviation="14.5" result="effect1_foregroundBlur_113_43"/>
</filter>
</defs>
</svg>
