<svg width="247" height="240" viewBox="0 0 247 240" fill="none" xmlns="http://www.w3.org/2000/svg">
<g filter="url(#filter0_i_116_2)">
<circle cx="125" cy="120" r="120" fill="#FFC91B"/>
</g>
<g filter="url(#filter1_df_116_2)">
<path d="M28 55C37.8894 69.4722 44.075 83.0622 60.738 90.9771C72.4948 96.5616 86.9049 102.681 100.012 103.991C107.351 104.725 114.646 106.334 121.702 108.098" stroke="#D48B07" stroke-width="4" stroke-linecap="round"/>
</g>
<g filter="url(#filter2_df_116_2)">
<path d="M9 98C9.8091 100.967 13.3376 102.201 15.2468 104.363C17.5336 106.951 19.074 110.09 22.0721 111.998C27.2043 115.263 34.4362 116.89 40.2342 118.823" stroke="#D48B07" stroke-width="4" stroke-linecap="round"/>
</g>
<g filter="url(#filter3_df_116_2)">
<path d="M6.5 126C11.5 133.5 14.3061 137.105 18.6909 141.239C23.5776 145.847 28.0582 150.059 33.5347 153.859C42.5446 160.111 52.87 163.902 63.4488 165.884C77.067 168.436 90.854 170.074 104.581 171.837" stroke="#D48B07" stroke-width="4" stroke-linecap="round"/>
</g>
<g filter="url(#filter4_df_116_2)">
<path d="M66.4056 17.6877C75.661 29.323 90.3084 47.4336 106.374 49.9052C110.967 50.6118 110.576 52.8404 115.339 50.1944C117.72 48.8716 119.275 45.9016 121.702 44.2946C127.289 40.5939 134.599 37.0142 141.252 35.8498C151.893 33.9876 146.418 54.5081 151.258 60.3166C155.204 65.0511 165.858 48.8692 171.04 50.0209C175.453 51.0014 180.682 53.6532 185.211 55.0531C191.819 57.0955 196.154 58.2922 202.795 58.2922" stroke="#D48B07" stroke-width="4" stroke-linecap="round"/>
</g>
<g filter="url(#filter5_df_116_2)">
<path d="M240.276 135.336C221.76 135.336 202.788 136.361 184.286 134.874C174.801 134.111 166.415 133.805 158.026 129.61C154.187 127.691 150.406 125.8 146.573 123.884" stroke="#D48B07" stroke-width="4" stroke-linecap="round"/>
</g>
<g filter="url(#filter6_df_116_2)">
<path d="M224.5 178C204.5 181.725 187.786 187.184 167.512 181.725C161.906 180.216 151.872 181.24 147.615 176.982" stroke="#D48B07" stroke-width="4" stroke-linecap="round"/>
</g>
<g filter="url(#filter7_df_116_2)">
<path d="M169.478 210.257C158.797 210.257 148.116 210.257 137.434 210.257C123.509 210.257 111.74 207.918 98.2182 205.63C90.4475 204.315 86.0051 203.308 79 200C76.0638 198.613 66.535 194.899 65.3645 192.558" stroke="#D48B07" stroke-width="4" stroke-linecap="round"/>
</g>
<g filter="url(#filter8_df_116_2)">
<path d="M66.4056 120.76C67.0682 125.619 71.4208 134.445 77.6268 133.138C83.3689 131.93 86.9911 129.09 92.9547 129.09C98.4283 129.09 101.151 147.095 106.721 142.509C108.582 140.976 117.265 135.023 120.14 137.014C124.212 139.833 127.48 143.602 131.13 146.905C133.677 149.21 139.143 147.388 142.062 146.789C144.145 146.362 148.214 144.768 150.217 146.326C151.936 147.663 153.628 149.681 155.944 149.912C162.032 150.521 173.387 149.657 177.807 154.077" stroke="#D48B07" stroke-width="4" stroke-linecap="round"/>
</g>
<g filter="url(#filter9_df_116_2)">
<path d="M102.846 74.9504C111.127 79.7185 121.979 83.4106 130.956 86.403" stroke="#D48B07" stroke-width="4" stroke-linecap="round"/>
</g>
<g filter="url(#filter10_df_116_2)">
<path d="M160.108 94.7321C171.448 96.3814 183.009 97.8555 194.466 97.8555" stroke="#D48B07" stroke-width="4" stroke-linecap="round"/>
</g>
<g filter="url(#filter11_df_116_2)">
<path d="M158.026 20.8112C163.82 23.96 169.987 24.4434 174.684 29.1403" stroke="#D48B07" stroke-width="4" stroke-linecap="round"/>
</g>
<g filter="url(#filter12_df_116_2)">
<path d="M40 42.4114C47.1213 43.8357 53.2527 52.4879 59.0875 56.2932C61.0918 57.6004 62.7951 59.2539 64.8138 60.5156C66.8607 61.795 61.7352 56.6424 61.0541 54.3266C60.4316 52.2101 58.1444 41.4882 62.9051 45.5348C72.7596 53.9112 64.3944 36.4679 62.9051 32" stroke="#D48B07" stroke-width="4" stroke-linecap="round"/>
</g>
<g filter="url(#filter13_df_116_2)">
<path d="M231.947 71.827C228.554 72.0155 222.083 72.676 219.048 74.025C214.826 75.9013 231.265 84.0154 228.823 84.3207C227.795 84.4492 224.395 91.7516 223.618 93.1125C222.29 95.4355 213.974 99.9378 216.33 99.9378C223.258 99.9378 225.079 100.902 228.303 106.705C231.423 112.322 224.029 114.747 220.263 115.786C203.592 120.385 185.681 120.761 168.437 120.761" stroke="#D48B07" stroke-width="4" stroke-linecap="round"/>
</g>
<defs>
<filter id="filter0_i_116_2" x="5" y="0" width="240" height="272" filterUnits="userSpaceOnUse" color-interpolation-filters="sRGB">
<feFlood flood-opacity="0" result="BackgroundImageFix"/>
<feBlend mode="normal" in="SourceGraphic" in2="BackgroundImageFix" result="shape"/>
<feColorMatrix in="SourceAlpha" type="matrix" values="0 0 0 0 0 0 0 0 0 0 0 0 0 0 0 0 0 0 127 0" result="hardAlpha"/>
<feOffset dy="32"/>
<feGaussianBlur stdDeviation="17.5"/>
<feComposite in2="hardAlpha" operator="arithmetic" k2="-1" k3="1"/>
<feColorMatrix type="matrix" values="0 0 0 0 0 0 0 0 0 0 0 0 0 0 0 0 0 0 0.48 0"/>
<feBlend mode="normal" in2="shape" result="effect1_innerShadow_116_2"/>
</filter>
<filter id="filter1_df_116_2" x="21.9998" y="50.9998" width="105.703" height="67.0988" filterUnits="userSpaceOnUse" color-interpolation-filters="sRGB">
<feFlood flood-opacity="0" result="BackgroundImageFix"/>
<feColorMatrix in="SourceAlpha" type="matrix" values="0 0 0 0 0 0 0 0 0 0 0 0 0 0 0 0 0 0 127 0" result="hardAlpha"/>
<feOffset dy="4"/>
<feGaussianBlur stdDeviation="2"/>
<feComposite in2="hardAlpha" operator="out"/>
<feColorMatrix type="matrix" values="0 0 0 0 0 0 0 0 0 0 0 0 0 0 0 0 0 0 0.25 0"/>
<feBlend mode="normal" in2="BackgroundImageFix" result="effect1_dropShadow_116_2"/>
<feBlend mode="normal" in="SourceGraphic" in2="effect1_dropShadow_116_2" result="shape"/>
<feGaussianBlur stdDeviation="1" result="effect2_foregroundBlur_116_2"/>
</filter>
<filter id="filter2_df_116_2" x="2.99951" y="93.9995" width="43.2352" height="34.8239" filterUnits="userSpaceOnUse" color-interpolation-filters="sRGB">
<feFlood flood-opacity="0" result="BackgroundImageFix"/>
<feColorMatrix in="SourceAlpha" type="matrix" values="0 0 0 0 0 0 0 0 0 0 0 0 0 0 0 0 0 0 127 0" result="hardAlpha"/>
<feOffset dy="4"/>
<feGaussianBlur stdDeviation="2"/>
<feComposite in2="hardAlpha" operator="out"/>
<feColorMatrix type="matrix" values="0 0 0 0 0 0 0 0 0 0 0 0 0 0 0 0 0 0 0.25 0"/>
<feBlend mode="normal" in2="BackgroundImageFix" result="effect1_dropShadow_116_2"/>
<feBlend mode="normal" in="SourceGraphic" in2="effect1_dropShadow_116_2" result="shape"/>
<feGaussianBlur stdDeviation="1" result="effect2_foregroundBlur_116_2"/>
</filter>
<filter id="filter3_df_116_2" x="0.499756" y="122" width="110.081" height="59.8373" filterUnits="userSpaceOnUse" color-interpolation-filters="sRGB">
<feFlood flood-opacity="0" result="BackgroundImageFix"/>
<feColorMatrix in="SourceAlpha" type="matrix" values="0 0 0 0 0 0 0 0 0 0 0 0 0 0 0 0 0 0 127 0" result="hardAlpha"/>
<feOffset dy="4"/>
<feGaussianBlur stdDeviation="2"/>
<feComposite in2="hardAlpha" operator="out"/>
<feColorMatrix type="matrix" values="0 0 0 0 0 0 0 0 0 0 0 0 0 0 0 0 0 0 0.25 0"/>
<feBlend mode="normal" in2="BackgroundImageFix" result="effect1_dropShadow_116_2"/>
<feBlend mode="normal" in="SourceGraphic" in2="effect1_dropShadow_116_2" result="shape"/>
<feGaussianBlur stdDeviation="1" result="effect2_foregroundBlur_116_2"/>
</filter>
<filter id="filter4_df_116_2" x="60.4055" y="13.6876" width="148.389" height="57.4991" filterUnits="userSpaceOnUse" color-interpolation-filters="sRGB">
<feFlood flood-opacity="0" result="BackgroundImageFix"/>
<feColorMatrix in="SourceAlpha" type="matrix" values="0 0 0 0 0 0 0 0 0 0 0 0 0 0 0 0 0 0 127 0" result="hardAlpha"/>
<feOffset dy="4"/>
<feGaussianBlur stdDeviation="2"/>
<feComposite in2="hardAlpha" operator="out"/>
<feColorMatrix type="matrix" values="0 0 0 0 0 0 0 0 0 0 0 0 0 0 0 0 0 0 0.25 0"/>
<feBlend mode="normal" in2="BackgroundImageFix" result="effect1_dropShadow_116_2"/>
<feBlend mode="normal" in="SourceGraphic" in2="effect1_dropShadow_116_2" result="shape"/>
<feGaussianBlur stdDeviation="1" result="effect2_foregroundBlur_116_2"/>
</filter>
<filter id="filter5_df_116_2" x="140.573" y="119.883" width="105.703" height="25.7968" filterUnits="userSpaceOnUse" color-interpolation-filters="sRGB">
<feFlood flood-opacity="0" result="BackgroundImageFix"/>
<feColorMatrix in="SourceAlpha" type="matrix" values="0 0 0 0 0 0 0 0 0 0 0 0 0 0 0 0 0 0 127 0" result="hardAlpha"/>
<feOffset dy="4"/>
<feGaussianBlur stdDeviation="2"/>
<feComposite in2="hardAlpha" operator="out"/>
<feColorMatrix type="matrix" values="0 0 0 0 0 0 0 0 0 0 0 0 0 0 0 0 0 0 0.25 0"/>
<feBlend mode="normal" in2="BackgroundImageFix" result="effect1_dropShadow_116_2"/>
<feBlend mode="normal" in="SourceGraphic" in2="effect1_dropShadow_116_2" result="shape"/>
<feGaussianBlur stdDeviation="1" result="effect2_foregroundBlur_116_2"/>
</filter>
<filter id="filter6_df_116_2" x="141.615" y="172.982" width="88.8859" height="21.045" filterUnits="userSpaceOnUse" color-interpolation-filters="sRGB">
<feFlood flood-opacity="0" result="BackgroundImageFix"/>
<feColorMatrix in="SourceAlpha" type="matrix" values="0 0 0 0 0 0 0 0 0 0 0 0 0 0 0 0 0 0 127 0" result="hardAlpha"/>
<feOffset dy="4"/>
<feGaussianBlur stdDeviation="2"/>
<feComposite in2="hardAlpha" operator="out"/>
<feColorMatrix type="matrix" values="0 0 0 0 0 0 0 0 0 0 0 0 0 0 0 0 0 0 0.25 0"/>
<feBlend mode="normal" in2="BackgroundImageFix" result="effect1_dropShadow_116_2"/>
<feBlend mode="normal" in="SourceGraphic" in2="effect1_dropShadow_116_2" result="shape"/>
<feGaussianBlur stdDeviation="1" result="effect2_foregroundBlur_116_2"/>
</filter>
<filter id="filter7_df_116_2" x="59.364" y="188.557" width="116.114" height="31.6998" filterUnits="userSpaceOnUse" color-interpolation-filters="sRGB">
<feFlood flood-opacity="0" result="BackgroundImageFix"/>
<feColorMatrix in="SourceAlpha" type="matrix" values="0 0 0 0 0 0 0 0 0 0 0 0 0 0 0 0 0 0 127 0" result="hardAlpha"/>
<feOffset dy="4"/>
<feGaussianBlur stdDeviation="2"/>
<feComposite in2="hardAlpha" operator="out"/>
<feColorMatrix type="matrix" values="0 0 0 0 0 0 0 0 0 0 0 0 0 0 0 0 0 0 0.25 0"/>
<feBlend mode="normal" in2="BackgroundImageFix" result="effect1_dropShadow_116_2"/>
<feBlend mode="normal" in="SourceGraphic" in2="effect1_dropShadow_116_2" result="shape"/>
<feGaussianBlur stdDeviation="1" result="effect2_foregroundBlur_116_2"/>
</filter>
<filter id="filter8_df_116_2" x="60.4054" y="116.76" width="123.402" height="47.3167" filterUnits="userSpaceOnUse" color-interpolation-filters="sRGB">
<feFlood flood-opacity="0" result="BackgroundImageFix"/>
<feColorMatrix in="SourceAlpha" type="matrix" values="0 0 0 0 0 0 0 0 0 0 0 0 0 0 0 0 0 0 127 0" result="hardAlpha"/>
<feOffset dy="4"/>
<feGaussianBlur stdDeviation="2"/>
<feComposite in2="hardAlpha" operator="out"/>
<feColorMatrix type="matrix" values="0 0 0 0 0 0 0 0 0 0 0 0 0 0 0 0 0 0 0.25 0"/>
<feBlend mode="normal" in2="BackgroundImageFix" result="effect1_dropShadow_116_2"/>
<feBlend mode="normal" in="SourceGraphic" in2="effect1_dropShadow_116_2" result="shape"/>
<feGaussianBlur stdDeviation="1" result="effect2_foregroundBlur_116_2"/>
</filter>
<filter id="filter9_df_116_2" x="96.8452" y="70.9501" width="40.1117" height="25.4535" filterUnits="userSpaceOnUse" color-interpolation-filters="sRGB">
<feFlood flood-opacity="0" result="BackgroundImageFix"/>
<feColorMatrix in="SourceAlpha" type="matrix" values="0 0 0 0 0 0 0 0 0 0 0 0 0 0 0 0 0 0 127 0" result="hardAlpha"/>
<feOffset dy="4"/>
<feGaussianBlur stdDeviation="2"/>
<feComposite in2="hardAlpha" operator="out"/>
<feColorMatrix type="matrix" values="0 0 0 0 0 0 0 0 0 0 0 0 0 0 0 0 0 0 0.25 0"/>
<feBlend mode="normal" in2="BackgroundImageFix" result="effect1_dropShadow_116_2"/>
<feBlend mode="normal" in="SourceGraphic" in2="effect1_dropShadow_116_2" result="shape"/>
<feGaussianBlur stdDeviation="1" result="effect2_foregroundBlur_116_2"/>
</filter>
<filter id="filter10_df_116_2" x="154.108" y="90.7318" width="46.3578" height="17.1237" filterUnits="userSpaceOnUse" color-interpolation-filters="sRGB">
<feFlood flood-opacity="0" result="BackgroundImageFix"/>
<feColorMatrix in="SourceAlpha" type="matrix" values="0 0 0 0 0 0 0 0 0 0 0 0 0 0 0 0 0 0 127 0" result="hardAlpha"/>
<feOffset dy="4"/>
<feGaussianBlur stdDeviation="2"/>
<feComposite in2="hardAlpha" operator="out"/>
<feColorMatrix type="matrix" values="0 0 0 0 0 0 0 0 0 0 0 0 0 0 0 0 0 0 0.25 0"/>
<feBlend mode="normal" in2="BackgroundImageFix" result="effect1_dropShadow_116_2"/>
<feBlend mode="normal" in="SourceGraphic" in2="effect1_dropShadow_116_2" result="shape"/>
<feGaussianBlur stdDeviation="1" result="effect2_foregroundBlur_116_2"/>
</filter>
<filter id="filter11_df_116_2" x="152.026" y="16.8108" width="28.6586" height="22.3295" filterUnits="userSpaceOnUse" color-interpolation-filters="sRGB">
<feFlood flood-opacity="0" result="BackgroundImageFix"/>
<feColorMatrix in="SourceAlpha" type="matrix" values="0 0 0 0 0 0 0 0 0 0 0 0 0 0 0 0 0 0 127 0" result="hardAlpha"/>
<feOffset dy="4"/>
<feGaussianBlur stdDeviation="2"/>
<feComposite in2="hardAlpha" operator="out"/>
<feColorMatrix type="matrix" values="0 0 0 0 0 0 0 0 0 0 0 0 0 0 0 0 0 0 0.25 0"/>
<feBlend mode="normal" in2="BackgroundImageFix" result="effect1_dropShadow_116_2"/>
<feBlend mode="normal" in="SourceGraphic" in2="effect1_dropShadow_116_2" result="shape"/>
<feGaussianBlur stdDeviation="1" result="effect2_foregroundBlur_116_2"/>
</filter>
<filter id="filter12_df_116_2" x="33.9996" y="27.9995" width="39.6354" height="42.7173" filterUnits="userSpaceOnUse" color-interpolation-filters="sRGB">
<feFlood flood-opacity="0" result="BackgroundImageFix"/>
<feColorMatrix in="SourceAlpha" type="matrix" values="0 0 0 0 0 0 0 0 0 0 0 0 0 0 0 0 0 0 127 0" result="hardAlpha"/>
<feOffset dy="4"/>
<feGaussianBlur stdDeviation="2"/>
<feComposite in2="hardAlpha" operator="out"/>
<feColorMatrix type="matrix" values="0 0 0 0 0 0 0 0 0 0 0 0 0 0 0 0 0 0 0.25 0"/>
<feBlend mode="normal" in2="BackgroundImageFix" result="effect1_dropShadow_116_2"/>
<feBlend mode="normal" in="SourceGraphic" in2="effect1_dropShadow_116_2" result="shape"/>
<feGaussianBlur stdDeviation="1" result="effect2_foregroundBlur_116_2"/>
</filter>
<filter id="filter13_df_116_2" x="162.437" y="67.827" width="75.5095" height="62.9335" filterUnits="userSpaceOnUse" color-interpolation-filters="sRGB">
<feFlood flood-opacity="0" result="BackgroundImageFix"/>
<feColorMatrix in="SourceAlpha" type="matrix" values="0 0 0 0 0 0 0 0 0 0 0 0 0 0 0 0 0 0 127 0" result="hardAlpha"/>
<feOffset dy="4"/>
<feGaussianBlur stdDeviation="2"/>
<feComposite in2="hardAlpha" operator="out"/>
<feColorMatrix type="matrix" values="0 0 0 0 0 0 0 0 0 0 0 0 0 0 0 0 0 0 0.25 0"/>
<feBlend mode="normal" in2="BackgroundImageFix" result="effect1_dropShadow_116_2"/>
<feBlend mode="normal" in="SourceGraphic" in2="effect1_dropShadow_116_2" result="shape"/>
<feGaussianBlur stdDeviation="1" result="effect2_foregroundBlur_116_2"/>
</filter>
</defs>
</svg>
